<svg id="Layer_1" data-name="Layer 1" xmlns="http://www.w3.org/2000/svg" viewBox="0 0 451.24 89.95"><defs><style>.cls-1{font-size:23.29px;font-family:ArminGrotesk-SemiBold, Armin Grotesk;font-weight:600;}.cls-2{font-family:ArminGrotesk-Regular, Armin Grotesk;font-weight:400;}</style></defs><title>logorealnestor</title><path d="M54.82,234.13c0-5.18-2.86-8-7.29-8s-7.29,2.86-7.29,8v19.23a1.41,1.41,0,0,1-1.42,1.42H30a1.41,1.41,0,0,1-1.42-1.42V218.8a1.52,1.52,0,0,1,1.51-1.51h8.63a1.52,1.52,0,0,1,1.51,1.51v3a14,14,0,0,1,11.52-5.45c8.79,0,14.65,6,14.65,16.22v20.72a1.49,1.49,0,0,1-1.49,1.49H56.31a1.49,1.49,0,0,1-1.49-1.49Z" transform="translate(-28.59 -204)"/><path d="M124.38,255.33c-9,0-15.42-4.48-17.1-10.64a1.9,1.9,0,0,1,1.86-2.38h7.6a2.1,2.1,0,0,1,2,1.28c.8,1.93,2.89,3.15,5.55,3.15,3,0,4.56-1.36,4.56-3.07,0-6.13-20.71-1.7-20.71-15.67,0-6.47,5.52-11.79,15.46-11.79,8.34,0,13.53,3.94,15.36,9.72a2.47,2.47,0,0,1-2.35,3.23h-5.84a2.52,2.52,0,0,1-2.32-1.44c-.78-1.76-2.57-2.86-5.19-2.86S119,226,119,227.8c0,6.06,20.58,1.77,20.78,15.94C139.78,250.35,133.92,255.33,124.38,255.33Z" transform="translate(-28.59 -204)"/><path d="M183.93,255.33c-11.17,0-19.62-7.5-19.62-19.56s8.65-19.56,19.76-19.56,19.76,7.5,19.76,19.56S195.11,255.33,183.93,255.33Zm0-10.09c4.16,0,8-3.07,8-9.47s-3.81-9.47-7.9-9.47-7.91,3-7.91,9.47S179.71,245.24,183.93,245.24Z" transform="translate(-28.59 -204)"/><path d="M254.71,206c9.46,0,17,4.43,20.82,11.88a3.37,3.37,0,0,1-3,4.89h0a16.89,16.89,0,0,1-10.8-3.74,11,11,0,0,0-7.15-2.39c-7.16,0-12.06,5.31-12.06,13.76s4.9,13.77,12.06,13.77a11,11,0,0,0,7.15-2.4,16.89,16.89,0,0,1,10.8-3.74h0a3.38,3.38,0,0,1,3,4.9c-3.84,7.42-11.37,11.8-20.82,11.8-14.11,0-24.06-10-24.06-24.33S240.6,206,254.71,206Z" transform="translate(-28.59 -204)"/><path d="M296.28,255c-11.18,0-19.63-7.49-19.63-19.55s8.65-19.56,19.76-19.56,19.76,7.49,19.76,19.56S307.45,255,296.28,255Zm0-10.08c4.15,0,8-3.07,8-9.47s-3.82-9.48-7.91-9.48-7.9,3-7.9,9.48S292.05,244.89,296.28,244.89Z" transform="translate(-28.59 -204)"/><path d="M355.21,215.86a13.92,13.92,0,0,1,11.72,5.79V207.82a3.82,3.82,0,0,1,3.82-3.82h5.67a2.17,2.17,0,0,1,2.17,2.17v46.09a2.17,2.17,0,0,1-2.17,2.17h-5.67a3.82,3.82,0,0,1-3.82-3.82V249c-2.11,3.47-6.13,6-11.72,6-9.33,0-16.76-7.63-16.76-19.62S345.88,215.86,355.21,215.86ZM358.62,226c-4.36,0-8.31,3.27-8.31,9.34s3.95,9.47,8.31,9.47,8.31-3.34,8.31-9.4S363.05,226,358.62,226Z" transform="translate(-28.59 -204)"/><path d="M459.93,255c-11.18,0-19.63-7.49-19.63-19.55s8.65-19.56,19.76-19.56,19.76,7.49,19.76,19.56S471.1,255,459.93,255Zm0-10.08c4.15,0,8-3.07,8-9.47s-3.82-9.48-7.91-9.48-7.9,3-7.9,9.48S455.7,244.89,459.93,244.89Z" transform="translate(-28.59 -204)"/><path d="M226.08,229.08v-5.23a1.37,1.37,0,0,0-1.38-1.37h-4.25a2.36,2.36,0,0,1-2.35-2.36v-2.49a1.21,1.21,0,0,0-1.21-1.21h-7.73a2.72,2.72,0,0,0-2.72,2.72v32.59a2.72,2.72,0,0,0,2.72,2.72h7.73a1.21,1.21,0,0,0,1.21-1.21v-14h0v-6.76a2,2,0,0,1,2-2h4.58A1.38,1.38,0,0,0,226.08,229.08Z" transform="translate(-28.59 -204)"/><path d="M164.63,225.52v-8.08a1,1,0,0,0-.95-.95h-4.05v-6.81a2.19,2.19,0,0,0-2.19-2.19h-7.27a2.19,2.19,0,0,0-2.19,2.19v5.74a1.07,1.07,0,0,1-1.08,1.07h-6.46a1,1,0,0,0-.95.95v8.08a1,1,0,0,0,.95.95H148v15.09c0,.23,0,8.31,0,11.92a1.72,1.72,0,0,0,1.72,1.72h8.22a1.73,1.73,0,0,0,1.73-1.73c0-3.6,0-11.57,0-11.77V226.47h4.05A1,1,0,0,0,164.63,225.52Z" transform="translate(-28.59 -204)"/><path d="M87.43,255.33c-11.18,0-19.22-7.5-19.22-19.56s7.91-19.56,19.22-19.56c11.11,0,18.94,7.36,18.94,18.94a30.82,30.82,0,0,1-.2,3.41h-25A1.22,1.22,0,0,0,80,240a6.81,6.81,0,0,0,7,5.84,6.26,6.26,0,0,0,5.35-2.46,2.91,2.91,0,0,1,2.36-1.22h9.32a1.08,1.08,0,0,1,1,1.43C102.76,250.32,96.28,255.33,87.43,255.33Zm-6.14-23.24H93a1.34,1.34,0,0,0,1.32-1.62c-.74-3.15-3.63-4.92-7-4.92a7.06,7.06,0,0,0-7.08,5.09A1.12,1.12,0,0,0,81.29,232.09Z" transform="translate(-28.59 -204)"/><path d="M59.43.52h1.13a3.26,3.26,0,0,1,3.26,3.26V6A3.26,3.26,0,0,1,60.56,9.3H59.43A4.39,4.39,0,0,1,55,4.91v0A4.39,4.39,0,0,1,59.43.52Z"/><path d="M337.24,229v-5.23a1.37,1.37,0,0,0-1.38-1.37h-4.24a2.36,2.36,0,0,1-2.36-2.36v-2.49a1.21,1.21,0,0,0-1.21-1.21h-7.73a2.71,2.71,0,0,0-2.71,2.72v32.59a2.71,2.71,0,0,0,2.71,2.72h7.73a1.21,1.21,0,0,0,1.21-1.21v-14h0v-6.76a2,2,0,0,1,2-2h4.58A1.38,1.38,0,0,0,337.24,229Z" transform="translate(-28.59 -204)"/><path d="M399.28,255.54c-11.17,0-19.21-7.5-19.21-19.56s7.9-19.56,19.21-19.56c11.11,0,19,7.36,19,19a28.58,28.58,0,0,1-.21,3.4h-25a1.21,1.21,0,0,0-1.19,1.45,6.81,6.81,0,0,0,7,5.85,6.25,6.25,0,0,0,5.35-2.47,3,3,0,0,1,2.36-1.21h9.33a1.07,1.07,0,0,1,1,1.42C414.61,250.53,408.14,255.54,399.28,255.54Zm-6.14-23.24h11.67a1.33,1.33,0,0,0,1.31-1.62c-.73-3.15-3.62-4.92-7-4.92a7.07,7.07,0,0,0-7.09,5.09A1.12,1.12,0,0,0,393.14,232.3Z" transform="translate(-28.59 -204)"/><path d="M439.45,229.28v-5.23a1.38,1.38,0,0,0-1.38-1.37h-4.24a2.36,2.36,0,0,1-2.36-2.36v-2.49a1.21,1.21,0,0,0-1.21-1.21h-7.73a2.71,2.71,0,0,0-2.71,2.72v32.59a2.71,2.71,0,0,0,2.71,2.72h7.73a1.21,1.21,0,0,0,1.21-1.21v-14h0v-6.76a2,2,0,0,1,2-2h4.58A1.38,1.38,0,0,0,439.45,229.28Z" transform="translate(-28.59 -204)"/><text class="cls-1" transform="translate(145.51 79.72)">UI/UX<tspan class="cls-2" x="60.88" y="0" xml:space="preserve"> Designer</tspan></text></svg>