<svg width="42" height="46" viewBox="0 0 42 46" fill="none" xmlns="http://www.w3.org/2000/svg">
<g clip-path="url(#clip0)">
<path d="M11.6667 39.875C9.8 39.875 7.93333 37.9062 7 37.0625C2.33333 33.125 0.933333 31.7188 0 30.875V42.6875C0 44.2405 1.0449 45.5 2.33333 45.5H21C22.2884 45.5 23.3333 44.2405 23.3333 42.6875V30.875C22.4 31.7188 21 33.125 16.3333 37.0625C15.4 37.9062 13.5333 39.875 11.6667 39.875ZM21 23H2.33333C1.0449 23 0 24.2595 0 25.8125V27.2188C1.86667 28.9062 1.63333 28.9062 8.4 34.8125C9.1 35.375 10.5 37.0625 11.6667 37.0625C12.8333 37.0625 14.2333 35.375 14.9333 35.0938C21.7 29.1875 21.4667 29.1875 23.3333 27.5V25.8125C23.3333 24.2595 22.2884 23 21 23ZM39.6667 14.5625H16.3333C15.0449 14.5625 14 15.822 14 17.375V20.1875H21C23.4216 20.1875 25.418 22.4217 25.6455 25.2693L25.6667 25.25V37.0625H39.6667C40.9551 37.0625 42 35.803 42 34.25V17.375C42 15.822 40.9551 14.5625 39.6667 14.5625ZM37.3333 25.8125H32.6667V20.1875H37.3333V25.8125ZM11.6667 17.375C11.6667 14.2733 13.7601 11.75 16.3333 11.75H32.6667V3.3125C32.6667 1.75947 31.6218 0.5 30.3333 0.5H7C5.71156 0.5 4.66667 1.75947 4.66667 3.3125V20.1875H11.6667V17.375Z" fill="#FF5793"/>
</g>
<defs>
<clipPath id="clip0">
<rect width="42" height="45" fill="white" transform="translate(0 0.5)"/>
</clipPath>
</defs>
</svg>
