<svg width="452" height="90" viewBox="0 0 452 90" fill="none" xmlns="http://www.w3.org/2000/svg">
<g clip-path="url(#clip0)">
<path d="M26.23 30.13C26.23 24.95 23.37 22.13 18.94 22.13C14.51 22.13 11.65 24.99 11.65 30.13V49.36C11.6514 49.5469 11.6155 49.7321 11.5446 49.905C11.4738 50.0779 11.3692 50.2349 11.2371 50.3671C11.105 50.4992 10.9479 50.6037 10.775 50.6746C10.6021 50.7455 10.4169 50.7813 10.23 50.78H1.41003C1.22318 50.7813 1.03793 50.7455 0.865047 50.6746C0.692164 50.6037 0.535094 50.4992 0.402969 50.3671C0.270844 50.2349 0.1663 50.0779 0.0954089 49.905C0.0245182 49.7321 -0.011304 49.5469 -0.00997405 49.36V14.8C-0.00735319 14.4003 0.152578 14.0178 0.435192 13.7352C0.717805 13.4526 1.10036 13.2926 1.50003 13.29H10.13C10.5297 13.2926 10.9122 13.4526 11.1949 13.7352C11.4775 14.0178 11.6374 14.4003 11.64 14.8V17.8C12.992 16.0449 14.7413 14.6357 16.7439 13.6882C18.7466 12.7408 20.9456 12.2821 23.16 12.35C31.95 12.35 37.81 18.35 37.81 28.57V49.29C37.81 49.6852 37.653 50.0642 37.3736 50.3436C37.0942 50.623 36.7152 50.78 36.32 50.78H27.72C27.5244 50.78 27.3306 50.7415 27.1498 50.6666C26.9691 50.5917 26.8048 50.482 26.6664 50.3436C26.5281 50.2052 26.4183 50.041 26.3434 49.8602C26.2686 49.6794 26.23 49.4857 26.23 49.29V30.13Z" fill="black"/>
<path d="M95.79 51.33C86.79 51.33 80.37 46.85 78.69 40.69C78.6161 40.4073 78.6085 40.1113 78.6677 39.8251C78.7269 39.5389 78.8513 39.2702 79.0312 39.0399C79.2112 38.8096 79.4419 38.624 79.7053 38.4974C79.9687 38.3708 80.2577 38.3067 80.55 38.31H88.15C88.5736 38.2966 88.9913 38.4117 89.3482 38.6402C89.7052 38.8687 89.9847 39.1998 90.15 39.59C90.95 41.52 93.04 42.74 95.7 42.74C98.7 42.74 100.26 41.38 100.26 39.67C100.26 33.54 79.55 37.97 79.55 24C79.55 17.53 85.07 12.21 95.01 12.21C103.35 12.21 108.54 16.15 110.37 21.93C110.49 22.3006 110.52 22.6943 110.459 23.0789C110.398 23.4635 110.246 23.8282 110.017 24.1432C109.788 24.4581 109.488 24.7144 109.14 24.8911C108.793 25.0678 108.409 25.16 108.02 25.16H102.18C101.696 25.1683 101.219 25.0369 100.808 24.7815C100.397 24.5261 100.067 24.1576 99.86 23.72C99.08 21.96 97.29 20.86 94.67 20.86C92.05 20.86 90.41 22 90.41 23.8C90.41 29.86 110.99 25.57 111.19 39.74C111.19 46.35 105.33 51.33 95.79 51.33Z" fill="black"/>
<path d="M155.34 51.33C144.17 51.33 135.72 43.83 135.72 31.77C135.72 19.71 144.37 12.21 155.48 12.21C166.59 12.21 175.24 19.71 175.24 31.77C175.24 43.83 166.52 51.33 155.34 51.33ZM155.34 41.24C159.5 41.24 163.34 38.17 163.34 31.77C163.34 25.37 159.53 22.3 155.44 22.3C151.35 22.3 147.53 25.3 147.53 31.77C147.53 38.24 151.12 41.24 155.34 41.24Z" fill="black"/>
<path d="M226.12 2C235.58 2 243.12 6.43001 246.94 13.88C247.199 14.3932 247.323 14.9642 247.299 15.5387C247.276 16.1133 247.106 16.6722 246.805 17.1623C246.504 17.6524 246.083 18.0574 245.582 18.3389C245.08 18.6203 244.515 18.7687 243.94 18.77V18.77C240.015 18.8163 236.196 17.4938 233.14 15.03C231.113 13.416 228.581 12.5696 225.99 12.64C218.83 12.64 213.93 17.95 213.93 26.4C213.93 34.85 218.83 40.17 225.99 40.17C228.582 40.2376 231.114 39.3876 233.14 37.77C236.196 35.3062 240.015 33.9837 243.94 34.03V34.03C244.515 34.0332 245.08 34.1833 245.582 34.4659C246.083 34.7485 246.503 35.1544 246.804 35.6451C247.104 36.1357 247.274 36.695 247.298 37.2699C247.322 37.8447 247.199 38.4161 246.94 38.93C243.1 46.35 235.57 50.73 226.12 50.73C212.01 50.73 202.06 40.73 202.06 26.4C202.06 12.07 212.01 2 226.12 2Z" fill="black"/>
<path d="M267.69 51C256.51 51 248.06 43.51 248.06 31.45C248.06 19.39 256.71 11.89 267.82 11.89C278.93 11.89 287.58 19.38 287.58 31.45C287.58 43.52 278.86 51 267.69 51ZM267.69 40.92C271.84 40.92 275.69 37.85 275.69 31.45C275.69 25.05 271.87 21.97 267.78 21.97C263.69 21.97 259.88 24.97 259.88 31.45C259.88 37.93 263.46 40.89 267.69 40.89V40.92Z" fill="black"/>
<path d="M326.62 11.86C328.898 11.7918 331.158 12.2841 333.202 13.2937C335.245 14.3032 337.01 15.7991 338.34 17.65V3.82001C338.34 2.80688 338.742 1.83524 339.459 1.11885C340.175 0.402462 341.147 0 342.16 0H347.83C348.406 0 348.957 0.22862 349.364 0.635574C349.771 1.04253 350 1.59448 350 2.17V48.26C350 48.8355 349.771 49.3875 349.364 49.7944C348.957 50.2014 348.406 50.43 347.83 50.43H342.16C341.147 50.43 340.175 50.0275 339.459 49.3111C338.742 48.5948 338.34 47.6231 338.34 46.61V45C336.23 48.47 332.21 51 326.62 51C317.29 51 309.86 43.37 309.86 31.38C309.86 19.39 317.29 11.86 326.62 11.86ZM330.03 22C325.67 22 321.72 25.27 321.72 31.34C321.72 37.41 325.67 40.81 330.03 40.81C334.39 40.81 338.34 37.47 338.34 31.41C338.34 25.35 334.46 22 330.03 22Z" fill="black"/>
<path d="M431.34 51C420.16 51 411.71 43.51 411.71 31.45C411.71 19.39 420.36 11.89 431.47 11.89C442.58 11.89 451.23 19.38 451.23 31.45C451.23 43.52 442.51 51 431.34 51ZM431.34 40.92C435.49 40.92 439.34 37.85 439.34 31.45C439.34 25.05 435.52 21.97 431.43 21.97C427.34 21.97 423.53 24.97 423.53 31.45C423.53 37.93 427.11 40.89 431.34 40.89V40.92Z" fill="black"/>
<path d="M197.49 25.08V19.85C197.49 19.6692 197.454 19.4903 197.385 19.3234C197.315 19.1565 197.213 19.005 197.085 18.8777C196.957 18.7504 196.805 18.6496 196.637 18.5814C196.47 18.5131 196.291 18.4787 196.11 18.48H191.86C191.236 18.4773 190.638 18.2275 190.198 17.7852C189.757 17.3429 189.51 16.7442 189.51 16.12V13.63C189.51 13.3091 189.382 13.0013 189.156 12.7744C188.929 12.5475 188.621 12.42 188.3 12.42H180.57C179.849 12.42 179.157 12.7066 178.647 13.2167C178.137 13.7268 177.85 14.4186 177.85 15.14V47.73C177.85 48.4514 178.137 49.1432 178.647 49.6533C179.157 50.1634 179.849 50.45 180.57 50.45H188.3C188.621 50.45 188.929 50.3225 189.156 50.0956C189.382 49.8687 189.51 49.5609 189.51 49.24V35.24V28.48C189.51 27.9495 189.721 27.4408 190.096 27.0658C190.471 26.6907 190.98 26.48 191.51 26.48H196.09C196.275 26.4827 196.458 26.4483 196.629 26.3789C196.8 26.3095 196.955 26.2065 197.086 26.0759C197.216 25.9454 197.319 25.79 197.389 25.6189C197.458 25.4478 197.493 25.2646 197.49 25.08V25.08Z" fill="black"/>
<path d="M136.04 21.52V13.44C136.028 13.1919 135.924 12.9573 135.748 12.7817C135.573 12.6061 135.338 12.5021 135.09 12.49H131.04V5.67998C131.04 5.09915 130.809 4.54213 130.399 4.13142C129.988 3.72072 129.431 3.48999 128.85 3.48999H121.58C120.999 3.48999 120.442 3.72072 120.031 4.13142C119.621 4.54213 119.39 5.09915 119.39 5.67998V11.42C119.39 11.5613 119.362 11.7013 119.308 11.8318C119.253 11.9622 119.174 12.0807 119.073 12.1801C118.973 12.2796 118.854 12.3582 118.723 12.4114C118.592 12.4646 118.451 12.4913 118.31 12.49H111.85C111.602 12.5021 111.367 12.6061 111.192 12.7817C111.016 12.9573 110.912 13.1919 110.9 13.44V21.52C110.912 21.768 111.016 22.0027 111.192 22.1783C111.367 22.3539 111.602 22.4579 111.85 22.47H119.41V37.56C119.41 37.79 119.41 45.87 119.41 49.48C119.41 49.9362 119.591 50.3737 119.914 50.6962C120.236 51.0188 120.674 51.2 121.13 51.2H129.35C129.809 51.2 130.249 51.0177 130.573 50.6933C130.898 50.3688 131.08 49.9288 131.08 49.47C131.08 45.87 131.08 37.9 131.08 37.7V22.47H135.13C135.371 22.4485 135.596 22.3404 135.763 22.1657C135.931 21.991 136.029 21.7616 136.04 21.52V21.52Z" fill="black"/>
<path d="M58.84 51.33C47.66 51.33 39.62 43.83 39.62 31.77C39.62 19.71 47.53 12.21 58.84 12.21C69.95 12.21 77.78 19.57 77.78 31.15C77.7764 32.2895 77.7096 33.4279 77.58 34.56H52.58C52.4037 34.5643 52.2304 34.6068 52.0721 34.6846C51.9138 34.7623 51.7743 34.8735 51.6631 35.0103C51.5519 35.1472 51.4717 35.3065 51.428 35.4774C51.3843 35.6483 51.3781 35.8266 51.41 36C51.6486 37.6665 52.496 39.1856 53.7887 40.2641C55.0814 41.3425 56.7277 41.904 58.41 41.84C59.4351 41.9002 60.4593 41.7073 61.3923 41.2783C62.3253 40.8493 63.1384 40.1974 63.76 39.38C64.0283 39.0039 64.3823 38.6971 64.7926 38.485C65.203 38.2728 65.658 38.1614 66.12 38.16H75.44C75.61 38.1634 75.7769 38.2069 75.9269 38.287C76.0769 38.3671 76.206 38.4815 76.3034 38.6209C76.4009 38.7603 76.4641 38.9207 76.4878 39.0891C76.5115 39.2575 76.4951 39.4291 76.44 39.59C74.17 46.32 67.69 51.33 58.84 51.33ZM52.7 28.09H64.41C64.6105 28.0914 64.8089 28.0478 64.9903 27.9624C65.1718 27.877 65.3317 27.752 65.4584 27.5965C65.5851 27.441 65.6752 27.2591 65.7223 27.0641C65.7693 26.8692 65.7719 26.6661 65.73 26.47C64.99 23.32 62.1 21.55 58.73 21.55C57.1504 21.4832 55.594 21.9484 54.3103 22.8714C53.0265 23.7943 52.0898 25.1214 51.65 26.64C51.5988 26.8059 51.5869 26.9815 51.6152 27.1528C51.6435 27.3241 51.7113 27.4865 51.8131 27.6271C51.9149 27.7677 52.0481 27.8827 52.202 27.9631C52.3559 28.0434 52.5264 28.0869 52.7 28.09V28.09Z" fill="black"/>
<path d="M59.43 0.520019H60.56C61.4246 0.520019 62.2538 0.863482 62.8652 1.47485C63.4765 2.08622 63.82 2.91541 63.82 3.78002V6.00002C63.8253 6.43148 63.7449 6.8597 63.5834 7.25985C63.422 7.66 63.1827 8.02412 62.8794 8.33109C62.5762 8.63806 62.215 8.88177 61.8169 9.0481C61.4187 9.21442 60.9915 9.30005 60.56 9.30002H59.43C58.8501 9.3053 58.275 9.19565 57.7377 8.9774C57.2005 8.75915 56.7118 8.43662 56.2999 8.02845C55.888 7.62027 55.5611 7.13453 55.338 6.59929C55.1148 6.06405 55 5.4899 55 4.91002V4.91002C55 4.33013 55.1148 3.75599 55.338 3.22075C55.5611 2.6855 55.888 2.19977 56.2999 1.79159C56.7118 1.38342 57.2005 1.06089 57.7377 0.842637C58.275 0.624385 58.8501 0.514735 59.43 0.520019V0.520019Z" fill="black"/>
<path d="M308.65 25V19.77C308.65 19.5892 308.614 19.4102 308.545 19.2434C308.475 19.0765 308.374 18.925 308.245 18.7977C308.117 18.6703 307.965 18.5696 307.797 18.5014C307.63 18.4331 307.451 18.3986 307.27 18.4H303.03C302.404 18.4 301.804 18.1513 301.361 17.7087C300.919 17.2662 300.67 16.6659 300.67 16.04V13.55C300.67 13.3911 300.639 13.2337 300.578 13.0869C300.517 12.9401 300.428 12.8067 300.316 12.6944C300.203 12.582 300.07 12.4929 299.923 12.4321C299.776 12.3713 299.619 12.34 299.46 12.34H291.73C291.373 12.34 291.02 12.4104 290.691 12.5472C290.361 12.684 290.062 12.8845 289.81 13.1372C289.558 13.3899 289.359 13.6899 289.223 14.0198C289.088 14.3498 289.019 14.7032 289.02 15.06V47.65C289.019 48.0067 289.088 48.3602 289.223 48.6901C289.359 49.0201 289.558 49.32 289.81 49.5727C290.062 49.8254 290.361 50.0259 290.691 50.1627C291.02 50.2996 291.373 50.37 291.73 50.37H299.46C299.619 50.37 299.776 50.3387 299.923 50.2779C300.07 50.2171 300.203 50.1279 300.316 50.0156C300.428 49.9032 300.517 49.7698 300.578 49.623C300.639 49.4762 300.67 49.3189 300.67 49.16V35.16V28.4C300.67 27.8695 300.881 27.3608 301.256 26.9857C301.631 26.6107 302.14 26.4 302.67 26.4H307.25C307.435 26.4027 307.618 26.3683 307.789 26.2989C307.96 26.2295 308.115 26.1265 308.246 25.9959C308.377 25.8654 308.48 25.71 308.549 25.5389C308.618 25.3678 308.653 25.1846 308.65 25Z" fill="black"/>
<path d="M370.69 51.54C359.52 51.54 351.48 44.04 351.48 31.98C351.48 19.92 359.38 12.42 370.69 12.42C381.8 12.42 389.69 19.78 389.69 31.42C389.688 32.5565 389.618 33.6918 389.48 34.82H364.48C364.3 34.8194 364.123 34.8588 363.96 34.9353C363.798 35.0118 363.655 35.1235 363.541 35.2624C363.427 35.4012 363.345 35.5636 363.302 35.7379C363.258 35.9122 363.254 36.094 363.29 36.27C363.526 37.9383 364.373 39.4598 365.666 40.5403C366.959 41.6208 368.606 42.1836 370.29 42.12C371.316 42.1799 372.341 41.9859 373.274 41.5551C374.208 41.1242 375.02 40.4699 375.64 39.65C375.914 39.2809 376.27 38.9798 376.679 38.77C377.088 38.5602 377.54 38.4473 378 38.44H387.33C387.5 38.4417 387.666 38.4838 387.817 38.5627C387.967 38.6416 388.096 38.7551 388.194 38.8938C388.291 39.0325 388.355 39.1925 388.378 39.3605C388.402 39.5285 388.385 39.6997 388.33 39.86C386.02 46.53 379.55 51.54 370.69 51.54ZM364.55 28.3H376.22C376.42 28.3018 376.618 28.2583 376.8 28.1729C376.981 28.0874 377.14 27.9621 377.266 27.8063C377.392 27.6506 377.481 27.4684 377.527 27.2733C377.573 27.0783 377.574 26.8755 377.53 26.68C376.8 23.53 373.91 21.76 370.53 21.76C368.949 21.6926 367.391 22.1575 366.106 23.0803C364.82 24.0032 363.882 25.3305 363.44 26.85C363.387 27.0208 363.376 27.2017 363.408 27.3777C363.439 27.5537 363.512 27.7196 363.621 27.8615C363.729 28.0034 363.87 28.1173 364.032 28.1936C364.194 28.2699 364.371 28.3064 364.55 28.3V28.3Z" fill="black"/>
<path d="M410.86 25.28V20.05C410.857 19.6857 410.711 19.3373 410.452 19.0807C410.194 18.824 409.844 18.68 409.48 18.68H405.24C404.614 18.68 404.014 18.4314 403.571 17.9888C403.129 17.5462 402.88 16.9459 402.88 16.32V13.83C402.88 13.5091 402.753 13.2013 402.526 12.9744C402.299 12.7475 401.991 12.62 401.67 12.62H393.94C393.583 12.62 393.23 12.6904 392.901 12.8272C392.571 12.9641 392.272 13.1646 392.02 13.4173C391.768 13.67 391.569 13.9699 391.433 14.2999C391.298 14.6298 391.229 14.9833 391.23 15.34V47.93C391.229 48.2867 391.298 48.6402 391.433 48.9701C391.569 49.3001 391.768 49.6 392.02 49.8527C392.272 50.1054 392.571 50.3059 392.901 50.4428C393.23 50.5796 393.583 50.65 393.94 50.65H401.67C401.991 50.65 402.299 50.5225 402.526 50.2956C402.753 50.0687 402.88 49.7609 402.88 49.44V35.44V28.68C402.88 28.1496 403.091 27.6409 403.466 27.2658C403.841 26.8907 404.35 26.68 404.88 26.68H409.46C409.645 26.6827 409.828 26.6483 409.999 26.5789C410.17 26.5095 410.325 26.4065 410.456 26.276C410.586 26.1454 410.689 25.99 410.759 25.8189C410.828 25.6479 410.863 25.4646 410.86 25.28V25.28Z" fill="black"/>
</g>
<defs>
<clipPath id="clip0">
<rect width="451.24" height="89.95" fill="white"/>
</clipPath>
</defs>
</svg>
